# xmcd
#
# Track frame offsets:
# 150
# 16023
# 39474
# 55577
# 70177
# 85951
# 116209
# 132854
# 149833
# 166506
# 185924
# 202060
# 223827
# 241110
#
# Disc length: 3432 seconds
#
#
# Revision: 0
# Processed by: cddbd v1.5.2PL0 Copyright (c) Steve Scherf et al.
# Submitted via: FreeRIP 2.96 
#
DISCID=cc0d660e
DTITLE=Patrícia and Adriana - Ao Vivo - Vol. 2
DYEAR=2003
DGENRE=Country
TTITLE0=Os Sonhos Que Sonhei
TTITLE1=Te Esquecer é Impossível
TTITLE2=Aprendi a Esperar
TTITLE3=Amores
TTITLE4=Eu e Você
TTITLE5=Pout Porri dos Xotes (O Xote das Meninas, Anunciação, Eu só Quero um Xodó)
TTITLE6=Pout Porri das Modas (Alguém Pra Mim, Noite de Tortura)
TTITLE7=Sua Partida
TTITLE8=Cara à Cara, Frente à Frente
TTITLE9=Enquanto o Sol Durar
TTITLE10=Vem Me Abraçar
TTITLE11=Se Não Tivesse Conhecido
TTITLE12=Nos Bailes Da Vida
TTITLE13=Meu Mel
EXTD=
EXTT0=
EXTT1=
EXTT2=
EXTT3=
EXTT4=
EXTT5=
EXTT6=
EXTT7=
EXTT8=
EXTT9=
EXTT10=
EXTT11=
EXTT12=
EXTT13=
PLAYORDER=
